#!OML:ASF H:\Punching\Project 1\Capture day 1\Session 1\female.ASF
:FULLY-SPECIFIED
:DEGREES
190
root -0.0756704 14.9163 -1.88019 8.10861 -0.493546 -0.824453
lowerback 3.02873 -0.76661 0.49055
upperback -5.79048 -1.01918 -0.30012
thorax -7.7672 -0.542347 -0.490187
lowerneck -13.4921 1.6451 7.96467
upperneck 35.6279 1.55874 -4.12896
head 14.6643 1.17458 -2.87112
rclavicle -1.95057e-015 2.38542e-015
rhumerus 31.8945 10.5925 -61.8602
rradius 65.4635
rwrist 0.631094
rhand 31.2305 -35.8034
rfingers 7.12502
rthumb 54.8097 -54.0788
lclavicle -1.95057e-015 2.38542e-015
lhumerus 27.5803 -9.90758 56.4912
lradius 79.9652
lwrist -8.95016
lhand 35.9371 26.1255
lfingers 7.12502
lthumb 58.9505 40.9623
rfemur -27.0108 -5.14382 16.683
rtibia 50.1929
rfoot -27.9247 -8.82685
rtoes -12.5513
lfemur -28.028 -0.140602 -16.7638
ltibia 50.3179
lfoot -25.3691 11.2925
ltoes -13.378
191
root -0.0756322 14.916 -1.88051 8.11611 -0.514602 -0.867425
lowerback 3.02302 -0.784801 0.503626
upperback -5.82233 -1.04026 -0.261679
thorax -7.79801 -0.552345 -0.454965
lowerneck -13.3981 1.67188 7.92954
upperneck 35.5556 1.62094 -4.13939
head 14.6131 1.19405 -2.85674
rclavicle -1.69464e-014 6.75868e-015
rhumerus 31.9043 10.6973 -61.8642
rradius 65.4464
rwrist 0.609319
rhand 31.2099 -35.7783
rfingers 7.12502
rthumb 54.7913 -54.0668
lclavicle -1.69464e-014 6.75868e-015
lhumerus 27.4881 -9.85959 56.4722
lradius 79.9573
lwrist -8.9269
lhand 35.9389 26.0792
lfingers 7.12502
lthumb 58.952 40.9145
rfemur -27.0214 -5.11536 16.7306
rtibia 50.1765
rfoot -27.9115 -8.83183
rtoes -12.5736
lfemur -28.0365 -0.117868 -16.7161
ltibia 50.3252
lfoot -25.3763 11.2757
ltoes -13.3498
192
root -0.0758023 14.9168 -1.8805 8.10199 -0.522285 -0.849736
lowerback 3.01629 -0.784976 0.474781
upperback -5.82396 -1.04292 -0.267511
thorax -7.79541 -0.552136 -0.444755
lowerneck -13.2856 1.66956 7.88456
upperneck 35.4325 1.62716 -4.10482
head 14.5292 1.19348 -2.82927
rclavicle 4.09993e-016 4.57205e-015
rhumerus 31.8738 10.7085 -61.8638
rradius 65.4521
rwrist 0.565868
rhand 31.2091 -35.754
rfingers 7.12502
rthumb 54.7906 -54.0431
lclavicle 4.09993e-016 4.57205e-015
lhumerus 27.468 -9.85161 56.4594
lradius 79.9688
lwrist -8.92024
lhand 35.9507 26.109
lfingers 7.12502
lthumb 58.9623 40.9344
rfemur -27.0017 -5.11953 16.711
rtibia 50.1704
rfoot -27.9128 -8.81886
rtoes -12.5358
lfemur -28.0196 -0.110826 -16.7353
ltibia 50.3263
lfoot -25.3754 11.2778
ltoes -13.3249
193
root -0.0757097 14.9167 -1.8805 8.09875 -0.51663 -0.845896
lowerback 3.00843 -0.780131 0.478995
upperback -5.82082 -1.03728 -0.284525
thorax -7.78778 -0.550183 -0.465644
lowerneck -13.4096 1.6891 7.97298
upperneck 35.4538 1.6498 -4.18716
head 14.5714 1.20379 -2.87675
rclavicle -4.68386e-015 8.54774e-015
rhumerus 31.861 10.6782 -61.8823
rradius 65.4478
rwrist 0.552556
rhand 31.2129 -35.757
rfingers 7.12502
rthumb 54.794 -54.0436
lclavicle -4.68386e-015 8.54774e-015
lhumerus 27.5017 -9.85898 56.4463
lradius 79.9481
lwrist -8.90505
lhand 35.9027 26.098
lfingers 7.12502
lthumb 58.9207 40.9634
rfemur -26.9983 -5.15439 16.7093
rtibia 50.1659
rfoot -27.9009 -8.80818
rtoes -12.6062
lfemur -28.0207 -0.110004 -16.7399
ltibia 50.3313
lfoot -25.3713 11.2696
ltoes -13.3418
194
root -0.0759385 14.9163 -1.88078 8.09707 -0.528211 -0.860782
lowerback 3.002 -0.774581 0.483667
upperback -5.82783 -1.02949 -0.283719
thorax -7.79155 -0.546626 -0.46821
lowerneck -13.3405 1.68706 7.90495
upperneck 35.353 1.6502 -4.12622
head 14.5071 1.20143 -2.83594
rclavicle -1.28092e-014 9.54166e-015
rhumerus 31.8355 10.681 -61.8834
rradius 65.4491
rwrist 0.520033
rhand 31.1971 -35.6997
rfingers 7.12502
rthumb 54.7799 -53.9964
lclavicle -1.28092e-014 9.54166e-015
lhumerus 27.4794 -9.85404 56.434
lradius 79.9469
lwrist -8.91583
lhand 35.8774 26.0553
lfingers 7.12502
lthumb 58.8989 40.9418
rfemur -26.9995 -5.15218 16.7241
rtibia 50.1631
rfoot -27.9035 -8.77978
rtoes -12.5608
lfemur -28.0264 -0.0701135 -16.7261
ltibia 50.3332
lfoot -25.3482 11.2629
ltoes -13.3959
